<svg width="24" height="24" viewBox="0 0 24 24" fill="none" xmlns="http://www.w3.org/2000/svg">
<g clip-path="url(#clip0_7250_99)">
<path d="M13.1543 14.1577H10.3464C10.1393 14.1577 9.97141 14.3256 9.97141 14.5327V22.5131C9.97141 22.7202 10.1393 22.8881 10.3464 22.8881H13.1543C13.3614 22.8881 13.5293 22.7202 13.5293 22.5131V14.5327C13.5293 14.3256 13.3614 14.1577 13.1543 14.1577ZM12.7793 22.1381H10.7214V14.9077H12.7793V22.1381ZM8.25086 11.8267H5.44296C5.23586 11.8267 5.06796 11.9946 5.06796 12.2017V22.5131C5.06796 22.7202 5.23586 22.8881 5.44296 22.8881H8.25086C8.45796 22.8881 8.62586 22.7202 8.62586 22.5131V12.2017C8.62586 11.9946 8.45796 11.8267 8.25086 11.8267ZM7.87586 22.1381H5.81796V12.5767H7.87586V22.1381ZM3.34741 17.247H0.539551C0.332457 17.247 0.164551 17.4149 0.164551 17.622V22.5131C0.164551 22.7202 0.332457 22.8881 0.539551 22.8881H3.34746C3.55455 22.8881 3.72246 22.7202 3.72246 22.5131V17.622C3.72241 17.4149 3.55455 17.247 3.34741 17.247ZM2.97241 22.1381H0.914551V17.997H2.97246L2.97241 22.1381ZM20.0854 15.2629V11.2264C20.0854 11.0193 19.9175 10.8514 19.7104 10.8514H19.6491V10.2182C22.0287 9.77437 23.8358 7.68248 23.8358 5.17613C23.8358 2.34783 21.5348 0.046875 18.7065 0.046875C15.8783 0.046875 13.5773 2.34783 13.5773 5.17613C13.5773 6.31823 13.9526 7.37423 14.5863 8.22755L12.5075 10.0167C12.2902 9.87267 12.03 9.78858 11.7504 9.78858C11.4116 9.78858 11.1013 9.91205 10.8614 10.116L8.15402 8.30166C8.19757 8.16788 8.22143 8.02528 8.22143 7.87716C8.22143 7.11923 7.60483 6.50264 6.84691 6.50264C6.08899 6.50264 5.47239 7.11923 5.47239 7.87716C5.47239 8.18381 5.57341 8.46731 5.74385 8.69625L2.45229 12.9759C2.29483 12.9129 2.12322 12.8779 1.94355 12.8779C1.18563 12.8779 0.569035 13.4945 0.569035 14.2524C0.569035 15.0104 1.18563 15.627 1.94355 15.627C2.70147 15.627 3.31807 15.0104 3.31807 14.2524C3.31807 13.9457 3.21705 13.6622 3.04661 13.4333L6.33817 9.15366C6.49568 9.21666 6.66724 9.25167 6.84696 9.25167C7.18577 9.25167 7.49608 9.1282 7.73594 8.92425L10.4433 10.7385C10.3998 10.8723 10.3759 11.0149 10.3759 11.163C10.3759 11.921 10.9925 12.5376 11.7504 12.5376C12.5083 12.5376 13.1249 11.921 13.1249 11.163C13.1249 10.9566 13.0789 10.7608 12.997 10.5849L15.0759 8.79572C15.7939 9.51595 16.7243 10.0243 17.7639 10.2182V10.8514H17.7026C17.4955 10.8514 17.3276 11.0193 17.3276 11.2264V15.2629C15.5443 15.8449 14.2521 17.5236 14.2521 19.4986C14.2521 21.9548 16.2504 23.9531 18.7066 23.9531C21.1628 23.9531 23.161 21.9548 23.161 19.4986C23.161 17.5236 21.8688 15.8449 20.0854 15.2629ZM1.9435 14.877C1.59911 14.877 1.31899 14.5968 1.31899 14.2524C1.31899 13.9081 1.59916 13.6279 1.9435 13.6279C2.28785 13.6279 2.56802 13.9081 2.56802 14.2524C2.56802 14.5968 2.28789 14.877 1.9435 14.877ZM6.84691 8.50167C6.50252 8.50167 6.22239 8.2215 6.22239 7.87716C6.22239 7.53281 6.50257 7.25264 6.84691 7.25264C7.19125 7.25264 7.47142 7.53281 7.47142 7.87716C7.47142 8.2215 7.1913 8.50167 6.84691 8.50167ZM11.7504 11.7876C11.406 11.7876 11.1258 11.5074 11.1258 11.1631C11.1258 10.8187 11.406 10.5386 11.7504 10.5386C12.0947 10.5386 12.3749 10.8187 12.3749 11.1631C12.3749 11.5074 12.0948 11.7876 11.7504 11.7876ZM18.0776 11.6014H19.3354V12.1445H18.0776V11.6014ZM15.5451 5.17617C15.5451 3.43298 16.9633 2.01473 18.7065 2.01473C20.4498 2.01473 21.868 3.43294 21.868 5.17613C21.868 6.91931 20.4498 8.33756 18.7065 8.33756C17.885 8.33756 17.1359 8.02242 16.5732 7.50698L18.3235 6.00061L18.1895 7.09205C18.1643 7.29764 18.3105 7.48472 18.5161 7.50994C18.5316 7.51186 18.547 7.5128 18.5622 7.5128C18.7489 7.51275 18.9107 7.37344 18.934 7.18345L19.186 5.12958C19.1992 5.02228 19.1654 4.91452 19.0933 4.83394C19.0221 4.7543 18.9205 4.70888 18.8138 4.70888C18.8125 4.70888 18.8112 4.70888 18.8099 4.70892L16.7407 4.73063C16.5336 4.73283 16.3675 4.90247 16.3696 5.10956C16.3718 5.31534 16.5393 5.48063 16.7445 5.48063C16.7459 5.48063 16.7472 5.48063 16.7486 5.48058L17.7907 5.46966L16.0835 6.939C15.7436 6.435 15.5451 5.82834 15.5451 5.17617ZM16.0024 7.99823C16.7054 8.67211 17.6581 9.08756 18.7065 9.08756C20.8633 9.08756 22.618 7.33289 22.618 5.17613C22.618 3.01936 20.8633 1.26473 18.7065 1.26473C16.5498 1.26473 14.7951 3.01941 14.7951 5.17617C14.7951 6.01509 15.0614 6.79247 15.5128 7.43011L15.1563 7.73691C14.635 7.01625 14.3273 6.13148 14.3273 5.17613C14.3273 2.76141 16.2918 0.796875 18.7065 0.796875C21.1212 0.796875 23.0858 2.76141 23.0858 5.17613C23.0858 7.59084 21.1212 9.55538 18.7065 9.55538C17.5165 9.55538 16.436 9.07805 15.6459 8.30503L16.0024 7.99823ZM18.5139 10.3014C18.5778 10.3038 18.642 10.3054 18.7065 10.3054C18.771 10.3054 18.8351 10.3038 18.8991 10.3014V10.8514H18.5139V10.3014ZM18.0776 12.8945H19.3354V15.0888C19.1299 15.0596 18.92 15.0442 18.7065 15.0442C18.493 15.0442 18.2831 15.0596 18.0775 15.0888V12.8945H18.0776ZM18.7066 23.2031C16.6639 23.2031 15.0021 21.5413 15.0021 19.4986C15.0021 17.456 16.6639 15.7942 18.7066 15.7942C20.7492 15.7942 22.411 17.456 22.411 19.4986C22.411 21.5413 20.7492 23.2031 18.7066 23.2031ZM18.7066 16.149C16.8596 16.149 15.3569 17.6517 15.3569 19.4986C15.3569 21.3456 16.8596 22.8483 18.7066 22.8483C20.5535 22.8483 22.0562 21.3456 22.0562 19.4986C22.0562 17.6517 20.5535 16.149 18.7066 16.149ZM18.7066 22.0983C17.2731 22.0983 16.1069 20.9321 16.1069 19.4986C16.1069 18.0652 17.2731 16.899 18.7066 16.899C20.14 16.899 21.3062 18.0652 21.3062 19.4986C21.3062 20.9321 20.14 22.0983 18.7066 22.0983ZM19.7902 20.136C19.7902 20.5885 19.4918 20.9726 19.0815 21.1019V21.191C19.0815 21.3981 18.9136 21.566 18.7065 21.566C18.4994 21.566 18.3315 21.3981 18.3315 21.191V21.1178C18.103 21.0601 17.8977 20.9231 17.7564 20.7277C17.635 20.5599 17.6727 20.3255 17.8405 20.2042C18.0084 20.0828 18.2428 20.1205 18.3641 20.2883C18.414 20.3573 18.4936 20.3985 18.577 20.3985H18.7777C18.92 20.3985 19.0401 20.2783 19.0401 20.136C19.0401 19.9938 18.92 19.8736 18.7777 19.8736H18.6352C18.077 19.8736 17.6228 19.4194 17.6228 18.8611C17.6228 18.4087 17.9212 18.0246 18.3315 17.8953V17.8062C18.3315 17.5991 18.4994 17.4312 18.7065 17.4312C18.9136 17.4312 19.0815 17.5991 19.0815 17.8062V17.8794C19.31 17.9371 19.5153 18.0741 19.6565 18.2694C19.7779 18.4372 19.7403 18.6716 19.5725 18.793C19.4047 18.9144 19.1702 18.8767 19.0488 18.7089C18.999 18.64 18.9193 18.5988 18.8359 18.5988H18.6353C18.493 18.5988 18.3729 18.7189 18.3729 18.8612C18.3729 19.0059 18.4906 19.1236 18.6353 19.1236H18.7778C19.336 19.1237 19.7902 19.5778 19.7902 20.136Z" fill="white"/>
</g>
<defs>
<clipPath id="clip0_7250_99">
<rect width="24" height="24" fill="white"/>
</clipPath>
</defs>
</svg>
